<svg width="450" height="103" viewBox="0 0 450 103" fill="none" xmlns="http://www.w3.org/2000/svg">
<path d="M27.8224 101L0.308239 6.45454H25.5604L39.8253 68.4077H40.6101L56.9062 6.45454H77.4957L93.7919 68.5462H94.5767L108.888 6.45454H134.094L106.626 101H84.6051L67.5703 43.6633H66.8317L49.7969 101H27.8224ZM143.534 101V30.0909H166.109V101H143.534ZM154.845 21.8274C151.675 21.8274 148.951 20.781 146.674 18.6882C144.396 16.5646 143.257 14.0102 143.257 11.0249C143.257 8.07031 144.396 5.54663 146.674 3.45383C148.951 1.33025 151.675 0.26846 154.845 0.26846C158.046 0.26846 160.769 1.33025 163.016 3.45383C165.293 5.54663 166.432 8.07031 166.432 11.0249C166.432 14.0102 165.293 16.5646 163.016 18.6882C160.769 20.781 158.046 21.8274 154.845 21.8274ZM220.503 30.0909V46.7102H175.769V30.0909H220.503ZM185.14 13.1023H207.715V78.7024C207.715 80.0874 207.93 81.2107 208.361 82.0724C208.823 82.9034 209.485 83.5036 210.346 83.8729C211.208 84.2114 212.239 84.3807 213.439 84.3807C214.301 84.3807 215.209 84.3037 216.163 84.1499C217.148 83.9652 217.887 83.8113 218.379 83.6882L221.795 99.9844C220.718 100.292 219.195 100.677 217.225 101.138C215.286 101.6 212.962 101.893 210.254 102.016C204.961 102.262 200.421 101.646 196.635 100.169C192.881 98.661 190.003 96.322 188.003 93.152C186.033 89.982 185.079 85.9964 185.14 81.1953V13.1023ZM233.544 101V6.45454H298.083V25.0128H256.396V44.402H293.974V63.0064H256.396V101H233.544ZM332.164 6.45454V101H309.589V6.45454H332.164ZM346.532 101V30.0909H369.107V101H346.532ZM357.843 21.8274C354.673 21.8274 351.949 20.781 349.672 18.6882C347.394 16.5646 346.256 14.0102 346.256 11.0249C346.256 8.07031 347.394 5.54663 349.672 3.45383C351.949 1.33025 354.673 0.26846 357.843 0.26846C361.044 0.26846 363.767 1.33025 366.014 3.45383C368.291 5.54663 369.43 8.07031 369.43 11.0249C369.43 14.0102 368.291 16.5646 366.014 18.6882C363.767 20.781 361.044 21.8274 357.843 21.8274ZM402.68 30.0909L414.36 53.4503L426.455 30.0909H449.214L429.41 65.5455L449.953 101H427.379L414.36 77.456L401.665 101H378.767L399.357 65.5455L379.783 30.0909H402.68Z" fill="#FF0000"/>
</svg>
